<svg width="26" height="26" viewBox="0 0 26 26" fill="none" xmlns="http://www.w3.org/2000/svg">
<path d="M12.0911 0.964293L12.0911 0.964294C12.0008 0.974796 11.7263 1.00627 11.481 1.03428C7.75061 1.46008 4.30547 3.79679 2.41492 7.18173C1.72394 8.41884 1.22356 9.95468 1.01116 11.4883C0.970169 11.7843 0.95 12.392 0.95 12.9964C0.95 13.6008 0.970169 14.2085 1.01116 14.5045C1.50794 18.0913 3.42334 21.1408 6.41382 23.105C10.3731 25.7056 15.6318 25.6976 19.5954 23.0852C25.5607 19.1534 26.8515 10.9773 22.3815 5.43541C20.4533 3.04492 17.7887 1.52835 14.6858 1.05461C14.4485 1.01837 13.8915 0.985213 13.3507 0.966347C12.8108 0.947511 12.2782 0.942581 12.0911 0.964293ZM14.6488 16.3612L14.694 16.3826L14.6488 16.3612C14.4468 16.7873 14.1888 17.0506 13.7718 17.2566C13.6038 17.3396 13.5141 17.3806 13.415 17.4022C13.3152 17.424 13.2038 17.4266 12.991 17.4266C12.7879 17.4266 12.6732 17.423 12.5753 17.404C12.4787 17.3853 12.3965 17.3513 12.2592 17.2856C11.6083 16.9743 11.2459 16.4554 11.1657 15.7175C11.1432 15.5098 11.1149 15.365 11.0589 15.2485C11.0019 15.1302 10.9183 15.0454 10.7945 14.9531C10.6853 14.8716 10.5685 14.8464 10.3603 14.8464C10.2091 14.8464 10.0887 14.8661 9.98192 14.9199C9.87518 14.9736 9.78708 15.0589 9.69609 15.1807C9.6185 15.2846 9.57937 15.4367 9.56867 15.6116C9.55789 15.7877 9.5756 15.9931 9.61737 16.2092C9.70087 16.6411 9.88184 17.1222 10.133 17.5076C10.5229 18.1057 11.2546 18.6683 11.9024 18.8664L12.181 18.9516L12.1956 19.472C12.2039 19.7712 12.2168 19.9545 12.267 20.0897C12.3191 20.2297 12.4095 20.3144 12.5544 20.4224C12.658 20.4998 12.8277 20.5341 12.9886 20.5341C13.1495 20.5341 13.3192 20.4998 13.4228 20.4224C13.5673 20.3146 13.6577 20.2299 13.7098 20.0906C13.7602 19.9562 13.7732 19.7746 13.7815 19.4795L13.7959 18.9649L14.1339 18.8452C15.5722 18.336 16.5096 16.9029 16.4014 15.379C16.3416 14.5369 16.0167 13.8411 15.3943 13.2189C15.0642 12.889 14.7425 12.6542 14.3732 12.4917C14.0042 12.3294 13.5903 12.2405 13.0773 12.199C12.8197 12.1781 12.6703 12.1622 12.5484 12.1338C12.4279 12.1058 12.3329 12.0653 12.1849 11.9922C11.79 11.7971 11.5269 11.5258 11.3284 11.1069C11.2613 10.9654 11.2266 10.8813 11.2076 10.7837C11.1883 10.685 11.1847 10.5703 11.1847 10.3668C11.1847 10.1541 11.1874 10.0428 11.2092 9.94306C11.2308 9.84401 11.2717 9.7544 11.3548 9.58638L11.31 9.56422L11.3548 9.58638C11.5609 9.16961 11.8243 8.9117 12.2506 8.70984C12.392 8.64289 12.4762 8.60818 12.5736 8.58913C12.6722 8.56987 12.7864 8.56617 12.9886 8.56617C13.1908 8.56617 13.305 8.56987 13.4036 8.58913C13.501 8.60818 13.5852 8.64289 13.7266 8.70984L13.748 8.66465L13.7266 8.70984C14.3642 9.01173 14.7317 9.54056 14.8115 10.2753C14.834 10.483 14.8623 10.6278 14.9183 10.7443C14.9753 10.8626 15.0589 10.9474 15.1827 11.0397C15.2863 11.1171 15.456 11.1514 15.6169 11.1514C15.7778 11.1514 15.9476 11.1171 16.0512 11.0397C16.2202 10.9136 16.328 10.7734 16.3784 10.5828C16.4281 10.395 16.4208 10.1631 16.3713 9.85594C16.167 8.59043 15.2549 7.50308 14.0755 7.12264L13.796 7.03253L13.7815 6.51616C13.7733 6.22086 13.7601 6.03867 13.7107 5.90435C13.6595 5.76507 13.5709 5.6809 13.4298 5.57554L13.3999 5.61561L13.4298 5.57553C13.3411 5.50934 13.1978 5.47101 13.0578 5.45894C12.9174 5.44684 12.7672 5.46004 12.6625 5.50849C12.4809 5.59251 12.3585 5.69765 12.2844 5.87024C12.212 6.03865 12.1876 6.26678 12.1876 6.59122V7.03917L11.9062 7.12527C11.4802 7.25553 11.0475 7.51719 10.6552 7.87951C9.49658 8.94964 9.23021 10.719 10.0223 12.0832C10.1227 12.2561 10.3746 12.5657 10.5829 12.7739C10.913 13.1038 11.2347 13.3386 11.604 13.5011C11.973 13.6634 12.3869 13.7523 12.8999 13.7939C13.1575 13.8147 13.3069 13.8306 13.4288 13.859C13.5493 13.887 13.6443 13.9275 13.7923 14.0006C14.1872 14.1957 14.4503 14.4671 14.6488 14.8859C14.7157 15.0272 14.7505 15.1114 14.7695 15.2088C14.7888 15.3073 14.7925 15.4214 14.7925 15.6236C14.7925 15.8257 14.7888 15.9399 14.7695 16.0383C14.7505 16.1357 14.7157 16.2199 14.6488 16.3612ZM14.6465 2.67451C17.5807 3.16736 20.0562 4.76712 21.7066 7.23694C22.5392 8.48282 23.0889 9.90793 23.3427 11.4797C23.4001 11.8355 23.4292 12.4147 23.4292 12.9964C23.4292 13.5781 23.4001 14.1573 23.3427 14.5131C22.8392 17.6315 21.1321 20.2199 18.4767 21.8917C17.3407 22.6069 15.9708 23.1089 14.506 23.3457C14.1487 23.4035 13.5691 23.4326 12.9874 23.4325C12.4057 23.4324 11.8269 23.403 11.4713 23.3451C8.39504 22.8444 5.87808 21.2184 4.19559 18.6456C3.41223 17.4476 2.88295 16.0471 2.6347 14.5131C2.57711 14.1571 2.54798 13.578 2.54798 12.9964C2.54798 12.4148 2.57711 11.8357 2.6347 11.4797C3.0101 9.16003 3.99202 7.22204 5.60399 5.61783C7.39051 3.83995 9.6289 2.7962 12.1483 2.56644C12.3985 2.54362 12.8864 2.54761 13.3823 2.56905C13.8779 2.59048 14.3761 2.62911 14.6465 2.67451Z" fill="#ec6623" stroke="#ec6623" stroke-width="0.1"/>
</svg>
