<svg width="26" height="26" viewBox="0 0 32 32" fill="none" xmlns="http://www.w3.org/2000/svg">
<mask id="path-1-outside-1_736_162423" maskUnits="userSpaceOnUse" x="3" y="3" width="26" height="26" fill="black">
<rect fill="white" x="3" y="3" width="16" height="16"/>
<path fill-rule="evenodd" clip-rule="evenodd" d="M5.61367 4.07191C4.81361 4.26774 4.16925 4.98436 4.02828 5.83506C3.84589 6.93589 4.5647 8.0332 5.63544 8.28849C5.87979 8.34676 6.31343 8.36057 7.91585 8.36114L9.89449 8.36185L9.78289 8.5638C9.45062 9.16516 9.45062 10.026 9.78289 10.6274L9.89449 10.8293L9.18244 10.83C8.71234 10.8305 8.36779 10.8552 8.1686 10.9027C7.40659 11.0844 6.77569 11.7225 6.59607 12.4933C6.42269 13.2374 6.59124 13.9022 7.09454 14.4593L7.33045 14.7203L7.09454 14.9814C6.33356 15.8237 6.33426 17.0343 7.09618 17.8776L7.33045 18.1368L7.09454 18.3979C6.33271 19.2411 6.33271 20.4491 7.09454 21.2923L7.33045 21.5533L7.09454 21.8144C6.59124 22.3715 6.42269 23.0362 6.59607 23.7803C6.77569 24.5511 7.40659 25.1893 8.1686 25.371C8.4207 25.4311 8.93949 25.4431 11.3229 25.4436L14.1755 25.4444L14.6067 25.8362C15.6188 26.7561 16.6009 27.3221 17.7954 27.6742C20.603 28.5019 23.5949 27.7272 25.6659 25.6362C28.3524 22.9238 28.7691 18.6583 26.6595 15.4649C25.6926 14.0012 24.2567 12.8851 22.5904 12.3021C22.2084 12.1684 22.158 12.1365 22.0613 11.9664L21.9543 11.7784H22.653C23.0372 11.7784 23.4653 11.7567 23.6043 11.7302C23.9807 11.6586 24.3386 11.4624 24.6599 11.1515C25.535 10.3049 25.5494 8.92975 24.6922 8.06272C24.3981 7.76524 23.9726 7.5296 23.6043 7.46037C23.4613 7.43342 22.4989 7.41282 21.3858 7.41282H19.42L19.5368 7.21115C19.7871 6.77911 19.8561 6.21553 19.7267 5.66035C19.5418 4.86691 18.8488 4.19125 18.0689 4.04401C17.9072 4.0135 15.6677 3.99775 11.8532 4.00026C6.85961 4.00358 5.84531 4.01526 5.61367 4.07191ZM18.1808 5.07167C18.4027 5.19305 18.6291 5.42622 18.7493 5.65712C18.811 5.77565 18.8357 5.92513 18.8357 6.17909C18.8357 6.43305 18.811 6.58252 18.7493 6.70105C18.6291 6.93195 18.4027 7.16513 18.1808 7.28651L17.9932 7.3891H11.8948H5.79643L5.60879 7.28651C5.3869 7.16513 5.16047 6.93195 5.04033 6.70105C4.97864 6.58252 4.95392 6.43305 4.95392 6.17909C4.95392 5.78486 5.02274 5.60284 5.27394 5.33279C5.42415 5.17127 5.60949 5.05463 5.81961 4.98934C5.88425 4.96922 8.64977 4.95645 11.9652 4.96091L17.9932 4.96908L18.1808 5.07167ZM23.7163 8.48817C23.9381 8.60955 24.1646 8.84272 24.2847 9.07362C24.3464 9.19216 24.3711 9.34163 24.3711 9.59559C24.3711 9.84955 24.3464 9.99902 24.2847 10.1176C24.1646 10.3485 23.9381 10.5816 23.7163 10.703L23.5286 10.8056H17.4302H11.3319L11.1442 10.703C10.9223 10.5816 10.6959 10.3485 10.5758 10.1176C10.5141 9.99902 10.4894 9.84955 10.4894 9.59559C10.4894 9.20136 10.5582 9.01934 10.8094 8.74929C10.9596 8.58777 11.1449 8.47113 11.355 8.40584C11.4197 8.38572 14.1852 8.37295 17.5006 8.37742L23.5286 8.38558L23.7163 8.48817ZM20.5029 11.8258C20.579 11.8504 20.4472 11.8656 20.1276 11.8689C18.0771 11.8902 16.3022 12.5579 14.7828 13.8794L14.3584 14.2485L11.344 14.2353C8.35554 14.2222 8.32801 14.2212 8.14196 14.1195C7.92007 13.9981 7.69364 13.765 7.5735 13.5341C7.51181 13.4155 7.48709 13.266 7.48709 13.0121C7.48709 12.6179 7.55591 12.4358 7.80711 12.1658C7.9576 12.004 8.14355 11.8871 8.35278 11.8227C8.51011 11.7743 20.3531 11.7773 20.5029 11.8258ZM21.4176 12.9657C24.2287 13.5626 26.329 15.6933 26.9359 18.5639C27.0235 18.9784 27.0413 19.2097 27.0413 19.94C27.0413 20.6703 27.0235 20.9016 26.9359 21.3161C26.3272 24.1953 24.2406 26.3059 21.3942 26.9217C20.684 27.0754 19.3836 27.0754 18.6734 26.9217C17.2234 26.6081 16.0312 25.9516 15.0297 24.9157C14.5677 24.4377 14.4853 24.3368 14.1824 23.8785C13.6792 23.1169 13.3351 22.2774 13.1322 21.3161C12.9927 20.6555 12.9796 19.3349 13.1059 18.6825C13.543 16.4266 14.9172 14.5817 16.9142 13.5701C17.6107 13.2174 18.3672 12.9846 19.1894 12.8701C19.6867 12.8008 20.883 12.8522 21.4176 12.9657ZM22.1679 14.4476C22.0872 14.5178 22.0365 14.6195 22.0201 14.7442C21.9894 14.977 22.1059 15.1487 22.3955 15.2979C23.6629 15.9505 24.6506 17.2201 25.041 18.6982C25.1481 19.1037 25.1622 19.2482 25.1622 19.94C25.1622 20.6345 25.1483 20.7755 25.0393 21.1886C24.9717 21.4447 24.8392 21.829 24.745 22.0427C24.5302 22.5297 24.5097 22.6431 24.6036 22.8268C24.6945 23.0047 24.8076 23.0718 25.0162 23.0718C25.2499 23.0718 25.3761 22.9534 25.5468 22.5744C26.3241 20.8492 26.3148 18.9301 25.5209 17.259C24.996 16.154 24.0388 15.1297 22.9771 14.5369C22.5678 14.3084 22.3549 14.2849 22.1679 14.4476ZM13.5601 15.2116C13.5601 15.2207 13.464 15.3755 13.3465 15.5556C13.0565 15.9999 12.7173 16.6928 12.529 17.2253L12.3732 17.6661L10.3514 17.6524C8.38134 17.6389 8.32482 17.636 8.14196 17.536C7.92007 17.4146 7.69364 17.1815 7.5735 16.9506C7.51181 16.832 7.48709 16.6825 7.48709 16.4286C7.48709 16.0344 7.55591 15.8523 7.80711 15.5823C7.9576 15.4205 8.14355 15.3036 8.35278 15.2392C8.46574 15.2044 13.5601 15.1774 13.5601 15.2116ZM19.8643 16.0462C19.6874 16.1218 19.5647 16.3296 19.5647 16.5536C19.5647 16.7231 19.549 16.7607 19.4784 16.7607C19.3167 16.7607 18.8347 17.0421 18.6069 17.2695C18.4798 17.3963 18.3152 17.6322 18.2334 17.8047C18.1028 18.0798 18.087 18.1594 18.087 18.5412C18.087 18.928 18.1016 18.9994 18.239 19.2817C18.5439 19.908 19.1314 20.2948 19.8868 20.3665C20.3727 20.4126 20.6649 20.5272 20.8433 20.7416C21.1897 21.1581 21.1014 21.7033 20.6371 22.0141C20.4586 22.1336 20.3995 22.1465 20.0295 22.1465C19.6486 22.1465 19.6053 22.1363 19.4167 22.0021C19.1908 21.8416 19.0037 21.5492 19.0025 21.3548C19.0006 21.0347 18.7923 20.8194 18.493 20.828C18.3651 20.8316 18.2911 20.8702 18.188 20.9869C18.0612 21.1305 18.0535 21.1612 18.0753 21.4368C18.1238 22.0473 18.517 22.6064 19.1082 22.9057C19.2888 22.997 19.4654 23.0718 19.5006 23.0718C19.544 23.0718 19.5647 23.1327 19.5647 23.2608C19.5647 23.5225 19.7583 23.743 19.9942 23.7497C20.2984 23.7585 20.5029 23.5419 20.5029 23.2111C20.5029 23.125 20.5274 23.0718 20.567 23.0718C20.6022 23.0718 20.7788 22.997 20.9593 22.9057C21.3522 22.7069 21.6775 22.3742 21.8541 21.9907C21.9603 21.7601 21.9791 21.6554 21.9791 21.2924C21.9791 20.9287 21.9604 20.8248 21.8533 20.5923C21.561 19.9576 20.9749 19.5477 20.2355 19.4608C19.7247 19.4007 19.5385 19.3451 19.3367 19.1924C19.1572 19.0565 19.0043 18.7539 19.0028 18.5314C18.997 17.6874 20.2793 17.3113 20.8448 17.9912C20.9681 18.1394 21.0369 18.3183 21.0871 18.6212C21.1372 18.9233 21.4961 19.0915 21.772 18.9421C22.1668 18.7284 22.0169 17.8766 21.4842 17.3068C21.2463 17.0523 20.7684 16.7607 20.5892 16.7607C20.5182 16.7607 20.5029 16.723 20.5029 16.548C20.5029 16.1896 20.1599 15.9201 19.8643 16.0462ZM14.7524 16.9265C14.5337 17.1477 14.1906 18.0496 14.0432 18.7912C13.9286 19.3672 13.931 20.5731 14.0479 21.1238C14.301 22.3159 14.7933 23.2878 15.566 24.1205C16.217 24.822 17.152 25.4798 17.5652 25.5269C17.8299 25.5571 18.0113 25.41 18.0474 25.1358C18.0782 24.903 17.9617 24.7313 17.6721 24.5821C16.4047 23.9295 15.417 22.6599 15.0266 21.1818C14.9195 20.7763 14.9054 20.6318 14.9054 19.94C14.9054 19.2454 14.9193 19.1045 15.0283 18.6914C15.0959 18.4353 15.2283 18.051 15.3226 17.8373C15.4168 17.6236 15.5041 17.3929 15.5166 17.3246C15.5433 17.1777 15.4259 16.9261 15.2984 16.8571C15.1316 16.7668 14.8785 16.799 14.7524 16.9265ZM12.1205 18.9554C12.0741 19.3748 12.0725 20.7111 12.1182 20.9266L12.1513 21.0828L10.2404 21.069C8.3843 21.0555 8.32425 21.0522 8.14196 20.9525C7.92007 20.8311 7.69364 20.598 7.5735 20.3671C7.51181 20.2485 7.48709 20.099 7.48709 19.8451C7.48709 19.4509 7.55591 19.2688 7.80711 18.9988C7.9576 18.837 8.14355 18.7201 8.35278 18.6557C8.41742 18.6358 9.30018 18.6177 10.3144 18.6154L12.1585 18.6114L12.1205 18.9554ZM12.4754 22.4905C12.6472 23.0199 12.9407 23.6619 13.2242 24.1284C13.3316 24.305 13.4194 24.4605 13.4194 24.474C13.4194 24.4874 12.2742 24.4924 10.8745 24.485C8.36765 24.4718 8.32679 24.4701 8.14196 24.369C7.92007 24.2476 7.69364 24.0145 7.5735 23.7836C7.51181 23.665 7.48709 23.5155 7.48709 23.2616C7.48709 22.8674 7.55591 22.6853 7.80711 22.4153C7.9576 22.2535 8.14355 22.1366 8.35278 22.0722C8.41742 22.0523 9.33771 22.0342 10.3978 22.0319L12.3253 22.0279L12.4754 22.4905Z"/>
</mask>
<path fill-rule="evenodd" clip-rule="evenodd" d="M5.61367 4.07191C4.81361 4.26774 4.16925 4.98436 4.02828 5.83506C3.84589 6.93589 4.5647 8.0332 5.63544 8.28849C5.87979 8.34676 6.31343 8.36057 7.91585 8.36114L9.89449 8.36185L9.78289 8.5638C9.45062 9.16516 9.45062 10.026 9.78289 10.6274L9.89449 10.8293L9.18244 10.83C8.71234 10.8305 8.36779 10.8552 8.1686 10.9027C7.40659 11.0844 6.77569 11.7225 6.59607 12.4933C6.42269 13.2374 6.59124 13.9022 7.09454 14.4593L7.33045 14.7203L7.09454 14.9814C6.33356 15.8237 6.33426 17.0343 7.09618 17.8776L7.33045 18.1368L7.09454 18.3979C6.33271 19.2411 6.33271 20.4491 7.09454 21.2923L7.33045 21.5533L7.09454 21.8144C6.59124 22.3715 6.42269 23.0362 6.59607 23.7803C6.77569 24.5511 7.40659 25.1893 8.1686 25.371C8.4207 25.4311 8.93949 25.4431 11.3229 25.4436L14.1755 25.4444L14.6067 25.8362C15.6188 26.7561 16.6009 27.3221 17.7954 27.6742C20.603 28.5019 23.5949 27.7272 25.6659 25.6362C28.3524 22.9238 28.7691 18.6583 26.6595 15.4649C25.6926 14.0012 24.2567 12.8851 22.5904 12.3021C22.2084 12.1684 22.158 12.1365 22.0613 11.9664L21.9543 11.7784H22.653C23.0372 11.7784 23.4653 11.7567 23.6043 11.7302C23.9807 11.6586 24.3386 11.4624 24.6599 11.1515C25.535 10.3049 25.5494 8.92975 24.6922 8.06272C24.3981 7.76524 23.9726 7.5296 23.6043 7.46037C23.4613 7.43342 22.4989 7.41282 21.3858 7.41282H19.42L19.5368 7.21115C19.7871 6.77911 19.8561 6.21553 19.7267 5.66035C19.5418 4.86691 18.8488 4.19125 18.0689 4.04401C17.9072 4.0135 15.6677 3.99775 11.8532 4.00026C6.85961 4.00358 5.84531 4.01526 5.61367 4.07191ZM18.1808 5.07167C18.4027 5.19305 18.6291 5.42622 18.7493 5.65712C18.811 5.77565 18.8357 5.92513 18.8357 6.17909C18.8357 6.43305 18.811 6.58252 18.7493 6.70105C18.6291 6.93195 18.4027 7.16513 18.1808 7.28651L17.9932 7.3891H11.8948H5.79643L5.60879 7.28651C5.3869 7.16513 5.16047 6.93195 5.04033 6.70105C4.97864 6.58252 4.95392 6.43305 4.95392 6.17909C4.95392 5.78486 5.02274 5.60284 5.27394 5.33279C5.42415 5.17127 5.60949 5.05463 5.81961 4.98934C5.88425 4.96922 8.64977 4.95645 11.9652 4.96091L17.9932 4.96908L18.1808 5.07167ZM23.7163 8.48817C23.9381 8.60955 24.1646 8.84272 24.2847 9.07362C24.3464 9.19216 24.3711 9.34163 24.3711 9.59559C24.3711 9.84955 24.3464 9.99902 24.2847 10.1176C24.1646 10.3485 23.9381 10.5816 23.7163 10.703L23.5286 10.8056H17.4302H11.3319L11.1442 10.703C10.9223 10.5816 10.6959 10.3485 10.5758 10.1176C10.5141 9.99902 10.4894 9.84955 10.4894 9.59559C10.4894 9.20136 10.5582 9.01934 10.8094 8.74929C10.9596 8.58777 11.1449 8.47113 11.355 8.40584C11.4197 8.38572 14.1852 8.37295 17.5006 8.37742L23.5286 8.38558L23.7163 8.48817ZM20.5029 11.8258C20.579 11.8504 20.4472 11.8656 20.1276 11.8689C18.0771 11.8902 16.3022 12.5579 14.7828 13.8794L14.3584 14.2485L11.344 14.2353C8.35554 14.2222 8.32801 14.2212 8.14196 14.1195C7.92007 13.9981 7.69364 13.765 7.5735 13.5341C7.51181 13.4155 7.48709 13.266 7.48709 13.0121C7.48709 12.6179 7.55591 12.4358 7.80711 12.1658C7.9576 12.004 8.14355 11.8871 8.35278 11.8227C8.51011 11.7743 20.3531 11.7773 20.5029 11.8258ZM21.4176 12.9657C24.2287 13.5626 26.329 15.6933 26.9359 18.5639C27.0235 18.9784 27.0413 19.2097 27.0413 19.94C27.0413 20.6703 27.0235 20.9016 26.9359 21.3161C26.3272 24.1953 24.2406 26.3059 21.3942 26.9217C20.684 27.0754 19.3836 27.0754 18.6734 26.9217C17.2234 26.6081 16.0312 25.9516 15.0297 24.9157C14.5677 24.4377 14.4853 24.3368 14.1824 23.8785C13.6792 23.1169 13.3351 22.2774 13.1322 21.3161C12.9927 20.6555 12.9796 19.3349 13.1059 18.6825C13.543 16.4266 14.9172 14.5817 16.9142 13.5701C17.6107 13.2174 18.3672 12.9846 19.1894 12.8701C19.6867 12.8008 20.883 12.8522 21.4176 12.9657ZM22.1679 14.4476C22.0872 14.5178 22.0365 14.6195 22.0201 14.7442C21.9894 14.977 22.1059 15.1487 22.3955 15.2979C23.6629 15.9505 24.6506 17.2201 25.041 18.6982C25.1481 19.1037 25.1622 19.2482 25.1622 19.94C25.1622 20.6345 25.1483 20.7755 25.0393 21.1886C24.9717 21.4447 24.8392 21.829 24.745 22.0427C24.5302 22.5297 24.5097 22.6431 24.6036 22.8268C24.6945 23.0047 24.8076 23.0718 25.0162 23.0718C25.2499 23.0718 25.3761 22.9534 25.5468 22.5744C26.3241 20.8492 26.3148 18.9301 25.5209 17.259C24.996 16.154 24.0388 15.1297 22.9771 14.5369C22.5678 14.3084 22.3549 14.2849 22.1679 14.4476ZM13.5601 15.2116C13.5601 15.2207 13.464 15.3755 13.3465 15.5556C13.0565 15.9999 12.7173 16.6928 12.529 17.2253L12.3732 17.6661L10.3514 17.6524C8.38134 17.6389 8.32482 17.636 8.14196 17.536C7.92007 17.4146 7.69364 17.1815 7.5735 16.9506C7.51181 16.832 7.48709 16.6825 7.48709 16.4286C7.48709 16.0344 7.55591 15.8523 7.80711 15.5823C7.9576 15.4205 8.14355 15.3036 8.35278 15.2392C8.46574 15.2044 13.5601 15.1774 13.5601 15.2116ZM19.8643 16.0462C19.6874 16.1218 19.5647 16.3296 19.5647 16.5536C19.5647 16.7231 19.549 16.7607 19.4784 16.7607C19.3167 16.7607 18.8347 17.0421 18.6069 17.2695C18.4798 17.3963 18.3152 17.6322 18.2334 17.8047C18.1028 18.0798 18.087 18.1594 18.087 18.5412C18.087 18.928 18.1016 18.9994 18.239 19.2817C18.5439 19.908 19.1314 20.2948 19.8868 20.3665C20.3727 20.4126 20.6649 20.5272 20.8433 20.7416C21.1897 21.1581 21.1014 21.7033 20.6371 22.0141C20.4586 22.1336 20.3995 22.1465 20.0295 22.1465C19.6486 22.1465 19.6053 22.1363 19.4167 22.0021C19.1908 21.8416 19.0037 21.5492 19.0025 21.3548C19.0006 21.0347 18.7923 20.8194 18.493 20.828C18.3651 20.8316 18.2911 20.8702 18.188 20.9869C18.0612 21.1305 18.0535 21.1612 18.0753 21.4368C18.1238 22.0473 18.517 22.6064 19.1082 22.9057C19.2888 22.997 19.4654 23.0718 19.5006 23.0718C19.544 23.0718 19.5647 23.1327 19.5647 23.2608C19.5647 23.5225 19.7583 23.743 19.9942 23.7497C20.2984 23.7585 20.5029 23.5419 20.5029 23.2111C20.5029 23.125 20.5274 23.0718 20.567 23.0718C20.6022 23.0718 20.7788 22.997 20.9593 22.9057C21.3522 22.7069 21.6775 22.3742 21.8541 21.9907C21.9603 21.7601 21.9791 21.6554 21.9791 21.2924C21.9791 20.9287 21.9604 20.8248 21.8533 20.5923C21.561 19.9576 20.9749 19.5477 20.2355 19.4608C19.7247 19.4007 19.5385 19.3451 19.3367 19.1924C19.1572 19.0565 19.0043 18.7539 19.0028 18.5314C18.997 17.6874 20.2793 17.3113 20.8448 17.9912C20.9681 18.1394 21.0369 18.3183 21.0871 18.6212C21.1372 18.9233 21.4961 19.0915 21.772 18.9421C22.1668 18.7284 22.0169 17.8766 21.4842 17.3068C21.2463 17.0523 20.7684 16.7607 20.5892 16.7607C20.5182 16.7607 20.5029 16.723 20.5029 16.548C20.5029 16.1896 20.1599 15.9201 19.8643 16.0462ZM14.7524 16.9265C14.5337 17.1477 14.1906 18.0496 14.0432 18.7912C13.9286 19.3672 13.931 20.5731 14.0479 21.1238C14.301 22.3159 14.7933 23.2878 15.566 24.1205C16.217 24.822 17.152 25.4798 17.5652 25.5269C17.8299 25.5571 18.0113 25.41 18.0474 25.1358C18.0782 24.903 17.9617 24.7313 17.6721 24.5821C16.4047 23.9295 15.417 22.6599 15.0266 21.1818C14.9195 20.7763 14.9054 20.6318 14.9054 19.94C14.9054 19.2454 14.9193 19.1045 15.0283 18.6914C15.0959 18.4353 15.2283 18.051 15.3226 17.8373C15.4168 17.6236 15.5041 17.3929 15.5166 17.3246C15.5433 17.1777 15.4259 16.9261 15.2984 16.8571C15.1316 16.7668 14.8785 16.799 14.7524 16.9265ZM12.1205 18.9554C12.0741 19.3748 12.0725 20.7111 12.1182 20.9266L12.1513 21.0828L10.2404 21.069C8.3843 21.0555 8.32425 21.0522 8.14196 20.9525C7.92007 20.8311 7.69364 20.598 7.5735 20.3671C7.51181 20.2485 7.48709 20.099 7.48709 19.8451C7.48709 19.4509 7.55591 19.2688 7.80711 18.9988C7.9576 18.837 8.14355 18.7201 8.35278 18.6557C8.41742 18.6358 9.30018 18.6177 10.3144 18.6154L12.1585 18.6114L12.1205 18.9554ZM12.4754 22.4905C12.6472 23.0199 12.9407 23.6619 13.2242 24.1284C13.3316 24.305 13.4194 24.4605 13.4194 24.474C13.4194 24.4874 12.2742 24.4924 10.8745 24.485C8.36765 24.4718 8.32679 24.4701 8.14196 24.369C7.92007 24.2476 7.69364 24.0145 7.5735 23.7836C7.51181 23.665 7.48709 23.5155 7.48709 23.2616C7.48709 22.8674 7.55591 22.6853 7.80711 22.4153C7.9576 22.2535 8.14355 22.1366 8.35278 22.0722C8.41742 22.0523 9.33771 22.0342 10.3978 22.0319L12.3253 22.0279L12.4754 22.4905Z" fill="#fff"/>
<path fill-rule="evenodd" clip-rule="evenodd" d="M5.61367 4.07191C4.81361 4.26774 4.16925 4.98436 4.02828 5.83506C3.84589 6.93589 4.5647 8.0332 5.63544 8.28849C5.87979 8.34676 6.31343 8.36057 7.91585 8.36114L9.89449 8.36185L9.78289 8.5638C9.45062 9.16516 9.45062 10.026 9.78289 10.6274L9.89449 10.8293L9.18244 10.83C8.71234 10.8305 8.36779 10.8552 8.1686 10.9027C7.40659 11.0844 6.77569 11.7225 6.59607 12.4933C6.42269 13.2374 6.59124 13.9022 7.09454 14.4593L7.33045 14.7203L7.09454 14.9814C6.33356 15.8237 6.33426 17.0343 7.09618 17.8776L7.33045 18.1368L7.09454 18.3979C6.33271 19.2411 6.33271 20.4491 7.09454 21.2923L7.33045 21.5533L7.09454 21.8144C6.59124 22.3715 6.42269 23.0362 6.59607 23.7803C6.77569 24.5511 7.40659 25.1893 8.1686 25.371C8.4207 25.4311 8.93949 25.4431 11.3229 25.4436L14.1755 25.4444L14.6067 25.8362C15.6188 26.7561 16.6009 27.3221 17.7954 27.6742C20.603 28.5019 23.5949 27.7272 25.6659 25.6362C28.3524 22.9238 28.7691 18.6583 26.6595 15.4649C25.6926 14.0012 24.2567 12.8851 22.5904 12.3021C22.2084 12.1684 22.158 12.1365 22.0613 11.9664L21.9543 11.7784H22.653C23.0372 11.7784 23.4653 11.7567 23.6043 11.7302C23.9807 11.6586 24.3386 11.4624 24.6599 11.1515C25.535 10.3049 25.5494 8.92975 24.6922 8.06272C24.3981 7.76524 23.9726 7.5296 23.6043 7.46037C23.4613 7.43342 22.4989 7.41282 21.3858 7.41282H19.42L19.5368 7.21115C19.7871 6.77911 19.8561 6.21553 19.7267 5.66035C19.5418 4.86691 18.8488 4.19125 18.0689 4.04401C17.9072 4.0135 15.6677 3.99775 11.8532 4.00026C6.85961 4.00358 5.84531 4.01526 5.61367 4.07191ZM18.1808 5.07167C18.4027 5.19305 18.6291 5.42622 18.7493 5.65712C18.811 5.77565 18.8357 5.92513 18.8357 6.17909C18.8357 6.43305 18.811 6.58252 18.7493 6.70105C18.6291 6.93195 18.4027 7.16513 18.1808 7.28651L17.9932 7.3891H11.8948H5.79643L5.60879 7.28651C5.3869 7.16513 5.16047 6.93195 5.04033 6.70105C4.97864 6.58252 4.95392 6.43305 4.95392 6.17909C4.95392 5.78486 5.02274 5.60284 5.27394 5.33279C5.42415 5.17127 5.60949 5.05463 5.81961 4.98934C5.88425 4.96922 8.64977 4.95645 11.9652 4.96091L17.9932 4.96908L18.1808 5.07167ZM23.7163 8.48817C23.9381 8.60955 24.1646 8.84272 24.2847 9.07362C24.3464 9.19216 24.3711 9.34163 24.3711 9.59559C24.3711 9.84955 24.3464 9.99902 24.2847 10.1176C24.1646 10.3485 23.9381 10.5816 23.7163 10.703L23.5286 10.8056H17.4302H11.3319L11.1442 10.703C10.9223 10.5816 10.6959 10.3485 10.5758 10.1176C10.5141 9.99902 10.4894 9.84955 10.4894 9.59559C10.4894 9.20136 10.5582 9.01934 10.8094 8.74929C10.9596 8.58777 11.1449 8.47113 11.355 8.40584C11.4197 8.38572 14.1852 8.37295 17.5006 8.37742L23.5286 8.38558L23.7163 8.48817ZM20.5029 11.8258C20.579 11.8504 20.4472 11.8656 20.1276 11.8689C18.0771 11.8902 16.3022 12.5579 14.7828 13.8794L14.3584 14.2485L11.344 14.2353C8.35554 14.2222 8.32801 14.2212 8.14196 14.1195C7.92007 13.9981 7.69364 13.765 7.5735 13.5341C7.51181 13.4155 7.48709 13.266 7.48709 13.0121C7.48709 12.6179 7.55591 12.4358 7.80711 12.1658C7.9576 12.004 8.14355 11.8871 8.35278 11.8227C8.51011 11.7743 20.3531 11.7773 20.5029 11.8258ZM21.4176 12.9657C24.2287 13.5626 26.329 15.6933 26.9359 18.5639C27.0235 18.9784 27.0413 19.2097 27.0413 19.94C27.0413 20.6703 27.0235 20.9016 26.9359 21.3161C26.3272 24.1953 24.2406 26.3059 21.3942 26.9217C20.684 27.0754 19.3836 27.0754 18.6734 26.9217C17.2234 26.6081 16.0312 25.9516 15.0297 24.9157C14.5677 24.4377 14.4853 24.3368 14.1824 23.8785C13.6792 23.1169 13.3351 22.2774 13.1322 21.3161C12.9927 20.6555 12.9796 19.3349 13.1059 18.6825C13.543 16.4266 14.9172 14.5817 16.9142 13.5701C17.6107 13.2174 18.3672 12.9846 19.1894 12.8701C19.6867 12.8008 20.883 12.8522 21.4176 12.9657ZM22.1679 14.4476C22.0872 14.5178 22.0365 14.6195 22.0201 14.7442C21.9894 14.977 22.1059 15.1487 22.3955 15.2979C23.6629 15.9505 24.6506 17.2201 25.041 18.6982C25.1481 19.1037 25.1622 19.2482 25.1622 19.94C25.1622 20.6345 25.1483 20.7755 25.0393 21.1886C24.9717 21.4447 24.8392 21.829 24.745 22.0427C24.5302 22.5297 24.5097 22.6431 24.6036 22.8268C24.6945 23.0047 24.8076 23.0718 25.0162 23.0718C25.2499 23.0718 25.3761 22.9534 25.5468 22.5744C26.3241 20.8492 26.3148 18.9301 25.5209 17.259C24.996 16.154 24.0388 15.1297 22.9771 14.5369C22.5678 14.3084 22.3549 14.2849 22.1679 14.4476ZM13.5601 15.2116C13.5601 15.2207 13.464 15.3755 13.3465 15.5556C13.0565 15.9999 12.7173 16.6928 12.529 17.2253L12.3732 17.6661L10.3514 17.6524C8.38134 17.6389 8.32482 17.636 8.14196 17.536C7.92007 17.4146 7.69364 17.1815 7.5735 16.9506C7.51181 16.832 7.48709 16.6825 7.48709 16.4286C7.48709 16.0344 7.55591 15.8523 7.80711 15.5823C7.9576 15.4205 8.14355 15.3036 8.35278 15.2392C8.46574 15.2044 13.5601 15.1774 13.5601 15.2116ZM19.8643 16.0462C19.6874 16.1218 19.5647 16.3296 19.5647 16.5536C19.5647 16.7231 19.549 16.7607 19.4784 16.7607C19.3167 16.7607 18.8347 17.0421 18.6069 17.2695C18.4798 17.3963 18.3152 17.6322 18.2334 17.8047C18.1028 18.0798 18.087 18.1594 18.087 18.5412C18.087 18.928 18.1016 18.9994 18.239 19.2817C18.5439 19.908 19.1314 20.2948 19.8868 20.3665C20.3727 20.4126 20.6649 20.5272 20.8433 20.7416C21.1897 21.1581 21.1014 21.7033 20.6371 22.0141C20.4586 22.1336 20.3995 22.1465 20.0295 22.1465C19.6486 22.1465 19.6053 22.1363 19.4167 22.0021C19.1908 21.8416 19.0037 21.5492 19.0025 21.3548C19.0006 21.0347 18.7923 20.8194 18.493 20.828C18.3651 20.8316 18.2911 20.8702 18.188 20.9869C18.0612 21.1305 18.0535 21.1612 18.0753 21.4368C18.1238 22.0473 18.517 22.6064 19.1082 22.9057C19.2888 22.997 19.4654 23.0718 19.5006 23.0718C19.544 23.0718 19.5647 23.1327 19.5647 23.2608C19.5647 23.5225 19.7583 23.743 19.9942 23.7497C20.2984 23.7585 20.5029 23.5419 20.5029 23.2111C20.5029 23.125 20.5274 23.0718 20.567 23.0718C20.6022 23.0718 20.7788 22.997 20.9593 22.9057C21.3522 22.7069 21.6775 22.3742 21.8541 21.9907C21.9603 21.7601 21.9791 21.6554 21.9791 21.2924C21.9791 20.9287 21.9604 20.8248 21.8533 20.5923C21.561 19.9576 20.9749 19.5477 20.2355 19.4608C19.7247 19.4007 19.5385 19.3451 19.3367 19.1924C19.1572 19.0565 19.0043 18.7539 19.0028 18.5314C18.997 17.6874 20.2793 17.3113 20.8448 17.9912C20.9681 18.1394 21.0369 18.3183 21.0871 18.6212C21.1372 18.9233 21.4961 19.0915 21.772 18.9421C22.1668 18.7284 22.0169 17.8766 21.4842 17.3068C21.2463 17.0523 20.7684 16.7607 20.5892 16.7607C20.5182 16.7607 20.5029 16.723 20.5029 16.548C20.5029 16.1896 20.1599 15.9201 19.8643 16.0462ZM14.7524 16.9265C14.5337 17.1477 14.1906 18.0496 14.0432 18.7912C13.9286 19.3672 13.931 20.5731 14.0479 21.1238C14.301 22.3159 14.7933 23.2878 15.566 24.1205C16.217 24.822 17.152 25.4798 17.5652 25.5269C17.8299 25.5571 18.0113 25.41 18.0474 25.1358C18.0782 24.903 17.9617 24.7313 17.6721 24.5821C16.4047 23.9295 15.417 22.6599 15.0266 21.1818C14.9195 20.7763 14.9054 20.6318 14.9054 19.94C14.9054 19.2454 14.9193 19.1045 15.0283 18.6914C15.0959 18.4353 15.2283 18.051 15.3226 17.8373C15.4168 17.6236 15.5041 17.3929 15.5166 17.3246C15.5433 17.1777 15.4259 16.9261 15.2984 16.8571C15.1316 16.7668 14.8785 16.799 14.7524 16.9265ZM12.1205 18.9554C12.0741 19.3748 12.0725 20.7111 12.1182 20.9266L12.1513 21.0828L10.2404 21.069C8.3843 21.0555 8.32425 21.0522 8.14196 20.9525C7.92007 20.8311 7.69364 20.598 7.5735 20.3671C7.51181 20.2485 7.48709 20.099 7.48709 19.8451C7.48709 19.4509 7.55591 19.2688 7.80711 18.9988C7.9576 18.837 8.14355 18.7201 8.35278 18.6557C8.41742 18.6358 9.30018 18.6177 10.3144 18.6154L12.1585 18.6114L12.1205 18.9554ZM12.4754 22.4905C12.6472 23.0199 12.9407 23.6619 13.2242 24.1284C13.3316 24.305 13.4194 24.4605 13.4194 24.474C13.4194 24.4874 12.2742 24.4924 10.8745 24.485C8.36765 24.4718 8.32679 24.4701 8.14196 24.369C7.92007 24.2476 7.69364 24.0145 7.5735 23.7836C7.51181 23.665 7.48709 23.5155 7.48709 23.2616C7.48709 22.8674 7.55591 22.6853 7.80711 22.4153C7.9576 22.2535 8.14355 22.1366 8.35278 22.0722C8.41742 22.0523 9.33771 22.0342 10.3978 22.0319L12.3253 22.0279L12.4754 22.4905Z" stroke="#fff" stroke-width="0.4" mask="url(#path-1-outside-1_736_162423)"/>
</svg>
