<svg width="32" height="32" viewBox="0 0 24 24" fill="none" xmlns="http://www.w3.org/2000/svg">
<path fill-rule="evenodd" clip-rule="evenodd" d="M10.3545 3.26758C9.16118 3.70146 7.92285 4.7952 7.34992 5.92091C6.61539 7.36435 6.7658 9.80538 7.67387 11.1812L8.32516 12.1681L7.04034 12.691C4.35996 13.7816 3.01016 15.5669 3.00018 18.035C2.99531 19.1978 3.08536 19.4314 3.82233 20.1703L4.64983 21H12H19.3502L20.1777 20.1703C20.9146 19.4314 21.0047 19.1978 20.9998 18.035C20.9906 15.7963 19.8218 14.0251 17.6774 12.9997C17.0327 12.6915 16.8231 12.6803 16.5143 12.9373C15.8433 13.4956 16.0971 14.0691 17.3656 14.8597C18.1768 15.3654 18.7137 15.9132 18.9476 16.4745C19.3774 17.506 19.4042 18.6031 19.0094 18.999C18.593 19.4165 5.40699 19.4165 4.99057 18.999C4.59653 18.6039 4.62233 17.5067 5.04971 16.4811C5.73167 14.8446 7.88731 13.8982 11.925 13.4631C14.3187 13.2052 15.4091 12.6142 16.4103 11.0309C16.9925 10.1104 17.111 9.6614 17.111 8.37488C17.111 7.31603 16.9594 6.52903 16.6313 5.88406C15.4762 3.61386 12.6462 2.43422 10.3545 3.26758ZM13.6596 5.1981C15.9917 6.32283 15.9762 10.2053 13.6348 11.3193C11.2146 12.4709 8.59264 10.9167 8.59264 8.33046C8.59264 5.55072 11.1333 3.9799 13.6596 5.1981Z" fill="#ffffff"/>
</svg>
